<svg id="Layer_1" data-name="Layer 1" xmlns="http://www.w3.org/2000/svg" xmlns:xlink="http://www.w3.org/1999/xlink" viewBox="0 0 475 122"><defs><style>.cls-1{fill:none;}.cls-2{clip-path:url(#clip-path);}.cls-3{fill:#cc172d;}.cls-4{fill:#fff;fill-rule:evenodd;}</style><clipPath id="clip-path"><rect class="cls-1" x="13.66" y="11.44" width="97.56" height="97.56"/></clipPath></defs><title>Untitled-3</title><g class="cls-2"><path class="cls-3" d="M89.46,11.44h-54A21.76,21.76,0,0,0,13.66,33.19V87.25A21.76,21.76,0,0,0,35.42,109h54a21.75,21.75,0,0,0,21.76-21.75V33.19A21.75,21.75,0,0,0,89.46,11.44Z"/><path class="cls-4" d="M13.66,77.57,30.8,61.3,43.27,74.86,72.1,43.76l-7-6L87.92,30.7,86.13,54.22l-7-5.43L43.27,87.32,30.41,73.65,13.66,89.74Z"/></g><path d="M158,36.41v8.21h-8.78V83.1h-9.11V44.62h-8.79V36.41Z"/><path d="M176.79,55c-3.18.25-5.41,1.09-6.67,2.5s-1.89,4-1.89,7.63v18H160V47.83h7.7V51.9a12.25,12.25,0,0,1,4.07-3.48,11,11,0,0,1,5-1.11Z"/><path d="M186.48,68.06a8.72,8.72,0,0,0,3,6,10.1,10.1,0,0,0,6.75,2.2,10.56,10.56,0,0,0,5-1.15,8.76,8.76,0,0,0,3.48-3.24h8.85a19.18,19.18,0,0,1-6.72,9A17.33,17.33,0,0,1,196.48,84a18.71,18.71,0,0,1-7.26-1.39,17.79,17.79,0,0,1-5.95-4.13,19,19,0,0,1-5.26-13,18.88,18.88,0,0,1,1.27-6.94A17.78,17.78,0,0,1,183,52.7a19.22,19.22,0,0,1,6.1-4.39,16.74,16.74,0,0,1,7-1.54,18.14,18.14,0,0,1,8.56,2.08,19.77,19.77,0,0,1,6.77,5.87,16,16,0,0,1,2.52,5.1,23.53,23.53,0,0,1,.81,6.48c0,.19,0,.48,0,.88s0,.69,0,.88Zm19.46-6.51a10,10,0,0,0-3.54-5.37,10.24,10.24,0,0,0-6.27-1.84,9.43,9.43,0,0,0-5.87,2,9.62,9.62,0,0,0-3.49,5.23Z"/><path d="M227.94,47.83v4a11,11,0,0,1,9.43-4.71A14.51,14.51,0,0,1,244,48.56a12.38,12.38,0,0,1,4.73,4.33,13.41,13.41,0,0,1,1.75,4.38,36.55,36.55,0,0,1,.53,7.17V83.1h-8.21V67.48q0-7.08-1.64-9.71c-1.09-1.76-3-2.63-5.64-2.63s-4.7,1-5.9,2.9-1.8,5.25-1.8,10V83.1h-7.92V47.83Z"/><path d="M285.6,50.65V36.41h8.08V83.1H285.6V80.21a17.72,17.72,0,0,1-5.13,2.87,17.53,17.53,0,0,1-5.84,1A18.32,18.32,0,0,1,268.35,83a16.45,16.45,0,0,1-5.3-3.08,18.9,18.9,0,0,1-6.63-14.52A18.54,18.54,0,0,1,258,57.86a18.34,18.34,0,0,1,4.48-6.22A16.42,16.42,0,0,1,268,48.18,18.53,18.53,0,0,1,274.63,47a19.14,19.14,0,0,1,6,.88A15.72,15.72,0,0,1,285.6,50.65Zm-.35,15a10.47,10.47,0,0,0-2.88-7.53,9.48,9.48,0,0,0-7.16-3A9.74,9.74,0,0,0,268,58.15a10.15,10.15,0,0,0-3,7.34,10,10,0,0,0,3,7.43,10.39,10.39,0,0,0,7.6,3,9,9,0,0,0,6.85-3A10.23,10.23,0,0,0,285.25,65.62Z"/><path d="M305.83,71.4v.48a5.85,5.85,0,0,0,1.19,3.8,3.8,3.8,0,0,0,3.08,1.46A4.06,4.06,0,0,0,313,76a3.67,3.67,0,0,0,1.14-2.79,4,4,0,0,0-.83-2.58,8.85,8.85,0,0,0-3-2c-.81-.37-2-.87-3.59-1.51a13.86,13.86,0,0,1-3-1.51,10.34,10.34,0,0,1-2.89-3.57,10.48,10.48,0,0,1-.93-4.51A10.14,10.14,0,0,1,303,50a10.37,10.37,0,0,1,7.58-3.08,10.15,10.15,0,0,1,7.46,2.72,11.19,11.19,0,0,1,3,7.64h-7.38v-.2a3.83,3.83,0,0,0-.88-2.66,3.18,3.18,0,0,0-2.46-1,3.05,3.05,0,0,0-2.29,1,3.24,3.24,0,0,0-.91,2.35q0,2.31,4.74,4.3l1.93.8c3,1.37,5.11,2.84,6.22,4.41a10.84,10.84,0,0,1,1.67,6.37,10.89,10.89,0,0,1-3.34,8.16A11.58,11.58,0,0,1,310,84a10.65,10.65,0,0,1-8.23-3.4,14.17,14.17,0,0,1-3.41-9.2Z"/><path class="cls-3" d="M327.64,83.1V36.41h10a38.37,38.37,0,0,1,4.84.24,12.23,12.23,0,0,1,3.17.82,12.81,12.81,0,0,1,5.9,4.52,11.75,11.75,0,0,1,2.06,6.89,11.85,11.85,0,0,1-1.22,5.58,8,8,0,0,1-3.59,3.5,9.78,9.78,0,0,1,5.45,3.94,12.12,12.12,0,0,1,2,7A15.58,15.58,0,0,1,355.06,75a12.21,12.21,0,0,1-8.18,7.33,28.72,28.72,0,0,1-7.54.77Zm8.79-27.9h1.05q3.79,0,5.65-1.36A4.74,4.74,0,0,0,345,49.75a4.42,4.42,0,0,0-1.77-3.88,9.58,9.58,0,0,0-5.48-1.25h-1.31Zm0,19.69h2.75q4.17,0,6.13-1.39a5,5,0,0,0,2-4.32,5.79,5.79,0,0,0-2.06-4.81q-2.06-1.64-6-1.63h-2.75Z"/><path class="cls-3" d="M367.37,68.06a8.76,8.76,0,0,0,3,6,10.1,10.1,0,0,0,6.75,2.2,10.63,10.63,0,0,0,5-1.15,8.8,8.8,0,0,0,3.47-3.24h8.86a19.32,19.32,0,0,1-6.72,9A17.35,17.35,0,0,1,377.38,84a18.76,18.76,0,0,1-7.27-1.39,17.89,17.89,0,0,1-5.95-4.13,19,19,0,0,1-5.26-13,19.09,19.09,0,0,1,1.27-6.94,17.81,17.81,0,0,1,3.74-5.85A19.07,19.07,0,0,1,370,48.31a16.81,16.81,0,0,1,7-1.54,18.14,18.14,0,0,1,8.56,2.08,19.68,19.68,0,0,1,6.77,5.87,16,16,0,0,1,2.52,5.1,23.51,23.51,0,0,1,.82,6.48c0,.19,0,.48,0,.88s0,.69,0,.88Zm19.47-6.51a10,10,0,0,0-3.55-5.37A10.2,10.2,0,0,0,377,54.34a9.45,9.45,0,0,0-5.87,2,9.67,9.67,0,0,0-3.49,5.23Z"/><path class="cls-3" d="M428,83.1V78.77a9.08,9.08,0,0,1-4.16,3.88A16.24,16.24,0,0,1,417,83.9a17.58,17.58,0,0,1-13.07-5.34,18.16,18.16,0,0,1-5.24-13.26,19.15,19.15,0,0,1,1.31-7,17.86,17.86,0,0,1,3.75-5.87,17,17,0,0,1,5.84-4.12,18.6,18.6,0,0,1,7.21-1.33,15.78,15.78,0,0,1,6.63,1.28,10.56,10.56,0,0,1,4.47,3.88V47.83h8V83.1ZM407,65.17a10.2,10.2,0,0,0,3,7.46,9.8,9.8,0,0,0,7.24,3,9.3,9.3,0,0,0,6.83-3,9.79,9.79,0,0,0,2.95-7,10.29,10.29,0,0,0-3-7.39,9.3,9.3,0,0,0-6.94-3.1A10.06,10.06,0,0,0,407,65.17Z"/><path class="cls-3" d="M445.62,83.1v-28h-5.39V47.83h5.39V36.41h8.21V47.83h5.42v7.31h-5.42v28Z"/></svg>